<svg version="1.1" id="Layer_1" xmlns="http://www.w3.org/2000/svg" xmlns:xlink="http://www.w3.org/1999/xlink" x="0px" y="0px"
	 width="100%" viewBox="0 0 600 600" enable-background="new 0 0 600 600" xml:space="preserve">
<path fill="none" opacity="1.000000" stroke="none" 
	d="
M381.000000,601.000000 
	C254.000000,601.000000 127.500000,601.000000 1.000000,601.000000 
	C1.000000,401.000000 1.000000,201.000000 1.000000,1.000000 
	C201.000000,1.000000 401.000000,1.000000 601.000000,1.000000 
	C601.000000,201.000000 601.000000,401.000000 601.000000,601.000000 
	C527.833313,601.000000 454.666656,601.000000 381.000000,601.000000 
M237.600525,158.201294 
	C237.397476,158.465836 237.194443,158.730392 236.559647,159.434372 
	C235.668716,160.256378 234.777786,161.078384 233.988617,161.971344 
	C233.988617,161.971344 233.918427,161.869064 233.408768,161.947830 
	C233.279816,162.061523 233.150879,162.175201 232.664001,162.230560 
	C232.664001,162.230560 232.301941,162.251328 231.583984,162.155243 
	C229.671371,163.976273 227.758743,165.797302 225.535400,167.920807 
	C225.535400,167.920807 225.150406,168.120316 224.486786,168.083420 
	C223.978287,168.700409 223.469803,169.317413 222.620087,170.420242 
	C221.852020,171.029770 221.083954,171.639297 219.726959,172.297226 
	C219.556580,172.627625 219.386215,172.958023 218.903198,173.735260 
	C218.528061,174.130829 218.152924,174.526398 217.374115,175.095551 
	C217.121674,175.275238 216.967331,175.517441 216.903107,175.896042 
	C216.903107,175.896042 216.828812,175.896561 216.163910,176.002090 
	C214.482285,178.044571 212.800659,180.087067 210.915497,182.540680 
	C210.755630,182.808029 210.546280,183.028366 209.565262,183.299713 
	C208.329300,185.129471 207.093338,186.959229 205.857315,188.868546 
	C205.857315,188.868546 205.777954,188.874557 205.110641,189.017059 
	C204.397766,190.334244 203.684891,191.651428 203.000000,193.000000 
	C203.000000,193.000000 202.965958,192.975082 202.278305,193.074081 
	C200.820068,195.973038 199.361847,198.871994 197.892365,201.877106 
	C197.892365,201.877106 197.806152,201.940079 197.134399,202.088974 
	C192.509933,208.171143 192.873077,209.736526 199.337601,212.497925 
	C206.784485,215.678925 214.180466,218.979080 221.628311,222.157791 
	C222.467102,222.515778 223.498703,222.421951 224.954330,222.723022 
	C225.260574,222.917740 225.566818,223.112473 226.028717,223.915985 
	C226.734894,224.239624 227.441071,224.563248 228.686966,225.033188 
	C229.109924,225.382858 229.532898,225.732529 230.044128,226.760513 
	C234.984787,230.536789 239.925446,234.313065 245.375351,238.379440 
	C245.898239,238.954529 246.421127,239.529633 247.032516,240.795425 
	C248.993835,242.550674 250.955154,244.305939 253.414062,246.364090 
	C253.916519,246.947205 254.418976,247.530334 254.946945,248.832870 
	C258.259583,251.912552 261.572235,254.992249 265.391846,258.365601 
	C265.906555,258.944427 266.421265,259.523285 267.012451,260.801147 
	C268.972900,262.558594 270.933350,264.316040 273.399567,266.364105 
	C273.908569,266.944000 274.417603,267.523895 274.952759,268.803497 
	C276.596741,270.227570 278.240723,271.651611 279.964874,273.025635 
	C279.964874,273.025635 279.919128,273.108337 279.946320,273.807312 
	C281.265137,274.892334 282.583984,275.977325 284.332001,277.316040 
	C284.595154,277.531219 284.792084,277.795746 284.945770,278.822906 
	C287.928986,281.570496 290.912231,284.318085 294.326660,287.318573 
	C294.592224,287.532715 294.790283,287.797363 294.945984,288.826172 
	C296.589111,290.242767 298.232208,291.659363 300.311432,293.332031 
	C300.515747,293.596680 300.720062,293.861328 301.001404,294.778381 
	C301.960663,295.543640 302.919952,296.308929 304.388153,297.367981 
	C304.900269,297.952911 305.412384,298.537842 306.005890,299.788086 
	C307.314697,300.874084 308.623535,301.960052 309.997406,303.003418 
	C309.997406,303.003418 309.953857,303.067871 310.014954,303.738251 
	C311.297333,304.852905 312.579712,305.967560 314.291748,307.349030 
	C314.500946,307.610596 314.710144,307.872162 315.006622,308.797729 
	C316.313141,309.881378 317.619659,310.964996 319.356049,312.296967 
	C319.619141,312.510437 319.815002,312.773895 320.006622,313.747284 
	C320.967773,314.520447 321.928894,315.293579 323.386078,316.380859 
	C323.893707,316.972992 324.401337,317.565125 325.013550,318.838257 
	C328.305878,321.920410 331.598206,325.002563 334.977966,328.036316 
	C334.977966,328.036316 334.919159,328.117126 334.945923,328.839325 
	C336.599579,330.250427 338.253235,331.661530 339.991364,333.023315 
	C339.991364,333.023315 339.931763,333.100891 340.009827,333.793396 
	C344.306335,337.883392 348.602875,341.973419 353.347748,346.296570 
	C353.763611,346.578888 354.179474,346.861176 354.925201,347.695923 
	C355.472748,347.959717 356.020264,348.223480 356.492645,348.392365 
	C356.492645,348.392365 356.468323,348.510956 356.467010,349.016235 
	C356.571381,349.345001 356.675751,349.673737 356.372955,350.459778 
	C357.550690,351.326843 358.728424,352.193909 360.419495,353.345398 
	C360.911102,353.663055 361.402679,353.980682 361.897766,354.671600 
	C361.897766,354.671600 361.977692,355.036255 361.978760,355.759003 
	C363.446075,357.069733 364.913391,358.380493 366.950348,359.794800 
	C367.520630,359.748535 368.090881,359.702271 369.229095,359.640167 
	C369.401886,359.328094 369.574677,359.015991 370.040619,358.224396 
	C370.580200,357.718842 371.119781,357.213287 372.388336,356.800323 
	C372.799530,356.100739 373.210724,355.401154 373.692169,354.683990 
	C373.692169,354.683990 373.717804,354.616241 374.087585,354.756714 
	C374.204865,354.705414 374.322144,354.654144 374.439423,354.602844 
	C374.347382,354.393219 374.255310,354.183624 374.309662,353.593994 
	C374.309662,353.593994 374.442596,353.209045 374.869751,353.030945 
	C375.141907,352.828918 375.265869,352.558868 375.219482,352.025482 
	C375.219482,352.025482 375.208527,352.221375 375.760773,352.053131 
	C376.246429,351.736969 376.732086,351.420807 377.918030,351.057281 
	C381.277832,347.372009 384.637634,343.686707 388.071625,339.638000 
	C388.071625,339.638000 388.097351,339.267975 388.615875,339.059723 
	C388.798889,338.747711 388.981934,338.435730 389.047668,338.162781 
	C389.047668,338.162781 389.171417,338.160156 389.775604,337.937714 
	C390.058716,337.372955 390.341797,336.808197 390.861786,336.228241 
	C390.861786,336.228241 390.989685,336.028320 391.439148,336.027679 
	C391.439148,336.027679 391.872925,335.909912 392.392059,335.759094 
	C392.549377,335.450439 392.706696,335.141785 393.041656,334.319366 
	C393.122559,333.969849 393.203461,333.620361 393.291687,333.179260 
	C393.291687,333.179260 393.225555,333.243042 393.743042,333.079895 
	C393.897095,332.766663 394.051117,332.453400 394.009827,332.088989 
	C394.009827,332.088989 394.192444,332.175201 394.789154,331.894135 
	C399.344055,325.190399 404.793671,318.920227 408.290710,311.703857 
	C420.072235,287.391968 423.672302,261.731659 418.421936,235.093384 
	C413.055206,207.864944 399.355865,185.482956 378.388580,167.429092 
	C366.387024,157.095154 352.722870,149.639969 337.693207,144.981384 
	C330.704407,142.815140 323.230927,142.212692 315.049194,140.781799 
	C306.039093,140.831329 297.029022,140.880859 287.416168,140.566254 
	C279.386597,142.322266 271.126648,143.401993 263.396149,146.035873 
	C256.490906,148.388611 250.170242,152.457092 243.264023,155.779953 
	C243.264023,155.779953 242.998062,155.971573 242.418884,156.018524 
	C242.156937,156.292038 241.894974,156.565552 241.288147,156.867615 
	C241.288147,156.867615 241.009903,157.073410 240.522369,156.980408 
	C240.522369,156.980408 240.028488,157.027420 239.412704,157.022903 
	C238.981415,157.398407 238.550125,157.773926 238.045761,158.068817 
	C238.045761,158.068817 238.112000,158.139404 237.600525,158.201294 
M431.154999,425.639618 
	C431.449249,425.536346 431.743500,425.433075 432.965027,425.236145 
	C439.626190,425.270477 446.287323,425.304779 453.137787,425.668884 
	C453.434143,425.554230 453.730469,425.439606 454.775787,425.215424 
	C455.519501,425.098297 456.263245,424.981201 457.813721,424.949219 
	C458.623596,424.756866 459.426544,424.526245 460.244385,424.377625 
	C521.616699,413.223358 558.086731,349.432251 535.769653,291.331085 
	C523.047180,258.209015 498.576202,237.639679 464.218414,229.224426 
	C456.333038,227.293045 447.976624,227.284775 439.115448,226.312271 
	C442.581696,244.349030 443.456879,261.022430 441.183533,277.846222 
	C437.855682,302.473969 429.201447,325.124817 413.219421,344.008209 
	C399.197174,360.576111 383.237671,375.504395 367.439667,390.997894 
	C365.888092,389.776428 364.192841,388.698669 362.805878,387.312500 
	C324.743744,349.272583 286.812164,311.101288 248.618546,273.194000 
	C236.640411,261.305695 225.766617,248.180817 210.506012,239.852051 
	C187.441864,227.264374 163.197876,223.764740 137.779190,229.687134 
	C109.365738,236.307297 88.447746,253.352493 74.026352,278.338623 
	C70.178665,285.005035 67.664894,292.513367 65.102043,299.832428 
	C61.299774,310.691040 61.922092,322.080414 61.951675,333.368073 
	C61.981800,344.862885 65.153442,355.686981 69.654182,366.035492 
	C76.878296,382.645874 87.778770,396.610840 102.654449,407.052032 
	C117.549629,417.506927 133.720200,425.048767 152.434525,425.059814 
	C239.904465,425.111481 327.374451,425.099304 414.844391,425.061584 
	C416.573944,425.060822 418.303223,424.470245 420.665588,424.107239 
	C421.078522,424.195953 421.491425,424.284668 422.206268,424.879944 
	C423.137634,424.882782 424.068970,424.885620 425.809113,424.882996 
	C426.879791,424.905243 427.950439,424.927490 429.658661,425.142120 
	C430.098572,425.198853 430.538452,425.255585 431.154999,425.639618 
z"/>
<path fill="#9FE7FE" opacity="1.000000" stroke="none" 
	d="
M420.032623,424.154846 
	C418.303223,424.470245 416.573944,425.060822 414.844391,425.061584 
	C327.374451,425.099304 239.904465,425.111481 152.434525,425.059814 
	C133.720200,425.048767 117.549629,417.506927 102.654449,407.052032 
	C87.778770,396.610840 76.878296,382.645874 69.654182,366.035492 
	C65.153442,355.686981 61.981800,344.862885 61.951675,333.368073 
	C61.922092,322.080414 61.299774,310.691040 65.102043,299.832428 
	C67.664894,292.513367 70.178665,285.005035 74.026352,278.338623 
	C88.447746,253.352493 109.365738,236.307297 137.779190,229.687134 
	C163.197876,223.764740 187.441864,227.264374 210.506012,239.852051 
	C225.766617,248.180817 236.640411,261.305695 248.618546,273.194000 
	C286.812164,311.101288 324.743744,349.272583 362.805878,387.312500 
	C364.192841,388.698669 365.888092,389.776428 367.811218,391.413635 
	C376.016754,402.162079 386.236572,409.595306 397.736908,415.170197 
	C404.930267,418.657196 412.584961,421.192474 420.032623,424.154846 
z"/>
<path fill="#31B0FE" opacity="1.000000" stroke="none" 
	d="
M232.301941,162.251328 
	C232.301941,162.251328 232.664001,162.230560 232.975983,162.387268 
	C233.498108,162.319016 233.708267,162.094040 233.918427,161.869064 
	C233.918427,161.869064 233.988617,161.971344 234.316635,161.971375 
	C236.419861,160.637878 238.195084,159.304337 239.977631,157.982178 
	C239.984970,157.993546 239.969589,157.978088 240.198441,157.899323 
	C240.722595,157.650360 240.916794,157.401306 241.009903,157.073410 
	C241.009903,157.073410 241.288147,156.867615 241.754395,156.832199 
	C242.479797,156.521713 242.738937,156.246643 242.998062,155.971573 
	C242.998062,155.971573 243.264023,155.779953 243.828110,155.814789 
	C245.808945,155.419586 247.264832,155.087952 248.635727,154.542618 
	C254.821854,152.081802 260.860260,149.169662 267.188263,147.167130 
	C273.987976,145.015320 281.051514,143.697083 288.468567,142.013092 
	C297.958801,142.021103 306.980347,142.031174 316.285522,142.314072 
	C322.932556,143.958694 329.373962,145.045044 335.644531,146.756989 
	C352.923889,151.474457 368.039795,160.221069 380.955597,172.561249 
	C385.506134,176.908981 389.120575,182.219238 393.461517,186.807022 
	C403.854767,197.791351 409.725098,211.262680 413.877106,225.368149 
	C419.932587,245.940201 419.432098,266.775818 414.763336,287.707153 
	C411.443604,302.590424 404.209412,315.386078 395.836670,327.772186 
	C394.983826,329.033875 394.726257,330.697876 394.192444,332.175201 
	C394.192444,332.175201 394.009827,332.088989 393.835938,332.182129 
	C393.516541,332.597839 393.371033,332.920441 393.225555,333.243042 
	C393.225555,333.243042 393.291687,333.179260 392.918640,333.179749 
	C392.026978,334.129578 391.508331,335.078949 390.989685,336.028320 
	C390.989685,336.028320 390.861786,336.228241 390.384308,336.274414 
	C389.661713,336.933746 389.416565,337.546967 389.171417,338.160156 
	C389.171417,338.160156 389.047668,338.162781 388.826263,338.218445 
	C388.435699,338.605377 388.266510,338.936676 388.097351,339.267975 
	C388.097351,339.267975 388.071625,339.638000 387.687897,339.836395 
	C383.871094,343.358429 380.437988,346.682068 376.669250,350.052216 
	C375.958588,350.806274 375.583557,351.513824 375.208527,352.221375 
	C375.208527,352.221375 375.219482,352.025482 374.953247,352.067780 
	C374.398682,352.297119 374.110413,352.484161 373.822144,352.671234 
	C374.028961,352.850525 374.235779,353.029785 374.442596,353.209045 
	C374.442596,353.209045 374.309662,353.593994 374.070068,353.906708 
	C373.830505,354.219421 373.717804,354.616241 373.717804,354.616241 
	C373.717804,354.616241 373.692169,354.683990 373.391724,354.722443 
	C372.743591,354.848846 372.395935,354.936798 371.834656,354.762085 
	C369.393433,355.357758 367.165833,356.216095 364.948181,357.060791 
	C364.958130,357.047211 364.966248,357.052429 364.877380,356.811829 
	C364.507385,356.390350 364.226318,356.209473 363.971252,356.014221 
	C363.997284,355.999847 363.972809,356.053955 363.872009,355.810242 
	C363.479614,355.382599 363.187988,355.198700 362.666138,354.996094 
	C362.435883,354.977356 361.977692,355.036255 361.977692,355.036255 
	C361.977692,355.036255 361.897766,354.671600 361.900269,354.130005 
	C361.248718,353.069092 360.594727,352.549744 359.963745,352.012512 
	C359.986816,351.994629 359.981262,352.052704 359.883453,351.813843 
	C359.501923,351.393707 359.218201,351.212433 358.965271,351.018005 
	C358.996063,351.004791 358.969208,351.066193 358.875122,350.824890 
	C358.497589,350.399414 358.214172,350.215302 357.966431,350.030121 
	C358.002136,350.029083 357.950378,350.078308 357.935089,349.744537 
	C357.435974,349.110840 356.952148,348.810883 356.468323,348.510956 
	C356.468323,348.510956 356.492645,348.392365 356.514099,348.075256 
	C355.888824,347.553253 355.242065,347.348358 354.595337,347.143463 
	C354.179474,346.861176 353.763611,346.578888 353.089539,345.841980 
	C348.531464,341.291870 344.231598,337.196381 339.931763,333.100891 
	C339.931763,333.100891 339.991364,333.023315 339.860535,332.724915 
	C338.126221,330.990082 336.522675,329.553589 334.919159,328.117126 
	C334.919159,328.117126 334.977966,328.036316 334.843140,327.735901 
	C331.441864,324.342773 328.175385,321.250000 324.908936,318.157257 
	C324.401337,317.565125 323.893707,316.972992 323.123474,315.893066 
	C321.888458,314.632629 320.916016,313.859985 319.943604,313.087341 
	C319.815002,312.773895 319.619141,312.510437 319.108124,311.839172 
	C317.546570,310.298828 316.232971,309.216278 314.919342,308.133728 
	C314.710144,307.872162 314.500946,307.610596 314.055908,306.881348 
	C312.531342,305.298401 311.242615,304.183136 309.953857,303.067871 
	C309.953857,303.067871 309.997406,303.003418 309.928711,302.691803 
	C308.548187,301.294403 307.236328,300.208588 305.924500,299.122803 
	C305.412384,298.537842 304.900269,297.952911 304.109833,296.891266 
	C302.862488,295.651672 301.893433,294.888824 300.924408,294.125946 
	C300.720062,293.861328 300.515747,293.596680 300.069702,292.871460 
	C298.192261,290.978119 296.556549,289.545349 294.920837,288.112579 
	C294.790283,287.797363 294.592224,287.532715 294.078430,286.854675 
	C290.861084,283.630341 287.891937,280.869965 284.922821,278.109558 
	C284.792084,277.795746 284.595154,277.531219 284.084747,276.867126 
	C282.531372,275.314911 281.225250,274.211609 279.919128,273.108337 
	C279.919128,273.108337 279.964874,273.025635 279.897705,272.720001 
	C278.195892,270.977509 276.561249,269.540619 274.926636,268.103760 
	C274.417603,267.523895 273.908569,266.944000 273.055969,265.896149 
	C270.786926,263.652832 268.861450,261.877472 266.935974,260.102112 
	C266.421265,259.523285 265.906555,258.944427 265.104889,257.881683 
	C261.519104,254.303009 258.220276,251.208237 254.921432,248.113464 
	C254.418976,247.530334 253.916519,246.947205 253.075012,245.889191 
	C250.805313,243.644424 248.874664,241.874573 246.944016,240.104736 
	C246.421127,239.529633 245.898239,238.954529 245.038803,237.908661 
	C239.786789,233.652649 234.871323,229.867432 229.955872,226.082214 
	C229.532898,225.732529 229.109924,225.382858 228.315948,224.667557 
	C227.254303,223.970352 226.563675,223.638779 225.873062,223.307190 
	C225.566818,223.112473 225.260574,222.917740 224.519760,222.353424 
	C214.750748,217.240753 205.416321,212.497665 195.856323,207.639969 
	C196.437927,205.939789 197.122040,203.939926 197.806152,201.940079 
	C197.806152,201.940079 197.892365,201.877106 198.196152,201.690430 
	C199.988602,198.660858 201.477280,195.817978 202.965958,192.975082 
	C202.965958,192.975082 203.000000,193.000000 203.295532,192.869812 
	C204.320023,191.451279 205.048996,190.162918 205.777954,188.874557 
	C205.777954,188.874557 205.857315,188.868546 206.180084,188.744080 
	C207.764389,186.813644 209.025925,185.007690 210.287445,183.201721 
	C210.546280,183.028366 210.755630,182.808029 211.337387,182.245331 
	C213.449127,179.932175 215.138977,177.914368 216.828812,175.896561 
	C216.828812,175.896561 216.903107,175.896042 217.145477,175.820801 
	C217.707382,175.560822 217.837372,175.286285 217.777802,174.921967 
	C218.152924,174.526398 218.528061,174.130829 219.301758,173.409119 
	C219.905502,172.804916 220.110687,172.526871 220.315887,172.248810 
	C221.083954,171.639297 221.852020,171.029770 223.100800,170.152954 
	C224.104462,169.297211 224.627426,168.708755 225.150391,168.120316 
	C225.150406,168.120316 225.535400,167.920807 226.026978,167.793671 
	C228.446350,165.861465 230.374146,164.056396 232.301941,162.251328 
z"/>
<path fill="#0362DF" opacity="1.000000" stroke="none" 
	d="
M420.349121,424.131042 
	C412.584961,421.192474 404.930267,418.657196 397.736908,415.170197 
	C386.236572,409.595306 376.016754,402.162079 368.158325,391.493103 
	C383.237671,375.504395 399.197174,360.576111 413.219421,344.008209 
	C429.201447,325.124817 437.855682,302.473969 441.183533,277.846222 
	C443.456879,261.022430 442.581696,244.349030 439.115448,226.312271 
	C447.976624,227.284775 456.333038,227.293045 464.218414,229.224426 
	C498.576202,237.639679 523.047180,258.209015 535.769653,291.331085 
	C558.086731,349.432251 521.616699,413.223358 460.244385,424.377625 
	C459.426544,424.526245 458.623596,424.756866 457.091797,424.637421 
	C450.615997,424.209564 444.860504,423.958191 439.108978,424.028961 
	C435.743103,424.070374 432.383514,424.625610 429.021118,424.949707 
	C427.950439,424.927490 426.879791,424.905243 425.174835,424.641052 
	C423.661835,424.390533 422.783081,424.381989 421.904358,424.373413 
	C421.491425,424.284668 421.078522,424.195953 420.349121,424.131042 
z"/>
<path fill="#54B6EA" opacity="1.000000" stroke="none" 
	d="
M394.490784,332.034668 
	C394.726257,330.697876 394.983826,329.033875 395.836670,327.772186 
	C404.209412,315.386078 411.443604,302.590424 414.763336,287.707153 
	C419.432098,266.775818 419.932587,245.940201 413.877106,225.368149 
	C409.725098,211.262680 403.854767,197.791351 393.461517,186.807022 
	C389.120575,182.219238 385.506134,176.908981 380.955597,172.561249 
	C368.039795,160.221069 352.923889,151.474457 335.644531,146.756989 
	C329.373962,145.045044 322.932556,143.958694 316.284546,142.028748 
	C315.992310,141.280838 315.984711,141.091095 315.977142,140.901367 
	C323.230927,142.212692 330.704407,142.815140 337.693207,144.981384 
	C352.722870,149.639969 366.387024,157.095154 378.388580,167.429092 
	C399.355865,185.482956 413.055206,207.864944 418.421936,235.093384 
	C423.672302,261.731659 420.072235,287.391968 408.290710,311.703857 
	C404.793671,318.920227 399.344055,325.190399 394.490784,332.034668 
z"/>
<path fill="#54B6EA" opacity="1.000000" stroke="none" 
	d="
M287.999908,142.015137 
	C281.051514,143.697083 273.987976,145.015320 267.188263,147.167130 
	C260.860260,149.169662 254.821854,152.081802 248.635727,154.542618 
	C247.264832,155.087952 245.808945,155.419586 243.991913,155.809067 
	C250.170242,152.457092 256.490906,148.388611 263.396149,146.035873 
	C271.126648,143.401993 279.386597,142.322266 287.710144,141.019485 
	C288.002716,141.653519 288.001312,141.834335 287.999908,142.015137 
z"/>
<path fill="#B9EDFA" opacity="1.000000" stroke="none" 
	d="
M197.470276,202.014526 
	C197.122040,203.939926 196.437927,205.939789 195.856323,207.639969 
	C205.416321,212.497665 214.750748,217.240753 224.263046,222.260742 
	C223.498703,222.421951 222.467102,222.515778 221.628311,222.157791 
	C214.180466,218.979080 206.784485,215.678925 199.337601,212.497925 
	C192.873077,209.736526 192.509933,208.171143 197.470276,202.014526 
z"/>
<path fill="#B9EDFA" opacity="1.000000" stroke="none" 
	d="
M230.000000,226.421356 
	C234.871323,229.867432 239.786789,233.652649 244.784180,237.763596 
	C239.925446,234.313065 234.984787,230.536789 230.000000,226.421356 
z"/>
<path fill="#B9EDFA" opacity="1.000000" stroke="none" 
	d="
M339.970795,333.447144 
	C344.231598,337.196381 348.531464,341.291870 352.865356,345.725403 
	C348.602875,341.973419 344.306335,337.883392 339.970795,333.447144 
z"/>
<path fill="#B9EDFA" opacity="1.000000" stroke="none" 
	d="
M377.004883,350.005676 
	C380.437988,346.682068 383.871094,343.358429 387.650818,340.018097 
	C384.637634,343.686707 381.277832,347.372009 377.515015,350.805939 
	C377.076294,350.371643 377.040588,350.188660 377.004883,350.005676 
z"/>
<path fill="#B9EDFA" opacity="1.000000" stroke="none" 
	d="
M254.934189,248.473175 
	C258.220276,251.208237 261.519104,254.303009 264.851379,257.734863 
	C261.572235,254.992249 258.259583,251.912552 254.934189,248.473175 
z"/>
<path fill="#003FB2" opacity="1.000000" stroke="none" 
	d="
M429.339905,425.045898 
	C432.383514,424.625610 435.743103,424.070374 439.108978,424.028961 
	C444.860504,423.958191 450.615997,424.209564 456.688416,424.594849 
	C456.263245,424.981201 455.519501,425.098297 454.130676,425.180847 
	C453.306519,425.210510 453.127502,425.274780 452.948486,425.339081 
	C446.287323,425.304779 439.626190,425.270477 432.238159,425.187256 
	C431.333618,425.196350 431.156006,425.254333 430.978363,425.312317 
	C430.538452,425.255585 430.098572,425.198853 429.339905,425.045898 
z"/>
<path fill="#359CDA" opacity="1.000000" stroke="none" 
	d="
M288.468567,142.013092 
	C288.001312,141.834335 288.002716,141.653519 288.011536,141.201569 
	C297.029022,140.880859 306.039093,140.831329 315.513184,140.841583 
	C315.984711,141.091095 315.992310,141.280838 316.000916,141.755920 
	C306.980347,142.031174 297.958801,142.021103 288.468567,142.013092 
z"/>
<path fill="#B9EDFA" opacity="1.000000" stroke="none" 
	d="
M284.934296,278.466248 
	C287.891937,280.869965 290.861084,283.630341 293.862823,286.728210 
	C290.912231,284.318085 287.928986,281.570496 284.934296,278.466248 
z"/>
<path fill="#B9EDFA" opacity="1.000000" stroke="none" 
	d="
M324.961243,318.497742 
	C328.175385,321.250000 331.441864,324.342773 334.799438,327.760132 
	C331.598206,325.002563 328.305878,321.920410 324.961243,318.497742 
z"/>
<path fill="#45AEE5" opacity="1.000000" stroke="none" 
	d="
M364.938202,357.074402 
	C367.165833,356.216095 369.393433,355.357758 371.787964,355.047180 
	C371.856354,355.965851 371.757874,356.336792 371.659393,356.707733 
	C371.119781,357.213287 370.580200,357.718842 369.665314,358.562378 
	C368.998291,359.083893 368.788666,359.335785 368.661163,359.656036 
	C368.090881,359.702271 367.520630,359.748535 366.557800,359.463928 
	C365.756226,358.446838 365.347229,357.760620 364.938202,357.074402 
z"/>
<path fill="#B9EDFA" opacity="1.000000" stroke="none" 
	d="
M266.974213,260.451630 
	C268.861450,261.877472 270.786926,263.652832 272.803101,265.750854 
	C270.933350,264.316040 268.972900,262.558594 266.974213,260.451630 
z"/>
<path fill="#B9EDFA" opacity="1.000000" stroke="none" 
	d="
M202.622131,193.024582 
	C201.477280,195.817978 199.988602,198.660858 198.201782,201.637360 
	C199.361847,198.871994 200.820068,195.973038 202.622131,193.024582 
z"/>
<path fill="#B9EDFA" opacity="1.000000" stroke="none" 
	d="
M216.496368,175.949326 
	C215.138977,177.914368 213.449127,179.932175 211.439163,182.039764 
	C212.800659,180.087067 214.482285,178.044571 216.496368,175.949326 
z"/>
<path fill="#B9EDFA" opacity="1.000000" stroke="none" 
	d="
M231.942963,162.203278 
	C230.374146,164.056396 228.446350,165.861465 226.182343,167.642426 
	C227.758743,165.797302 229.671371,163.976273 231.942963,162.203278 
z"/>
<path fill="#B9EDFA" opacity="1.000000" stroke="none" 
	d="
M246.988266,240.450073 
	C248.874664,241.874573 250.805313,243.644424 252.826202,245.737732 
	C250.955154,244.305939 248.993835,242.550674 246.988266,240.450073 
z"/>
<path fill="#B9EDFA" opacity="1.000000" stroke="none" 
	d="
M209.926361,183.250732 
	C209.025925,185.007690 207.764389,186.813644 206.180115,188.704285 
	C207.093338,186.959229 208.329300,185.129471 209.926361,183.250732 
z"/>
<path fill="#B9EDFA" opacity="1.000000" stroke="none" 
	d="
M334.932556,328.478210 
	C336.522675,329.553589 338.126221,330.990082 339.818298,332.749573 
	C338.253235,331.661530 336.599579,330.250427 334.932556,328.478210 
z"/>
<path fill="#B9EDFA" opacity="1.000000" stroke="none" 
	d="
M294.933411,288.469360 
	C296.556549,289.545349 298.192261,290.978119 299.851654,292.743408 
	C298.232208,291.659363 296.589111,290.242767 294.933411,288.469360 
z"/>
<path fill="#B9EDFA" opacity="1.000000" stroke="none" 
	d="
M274.939697,268.453613 
	C276.561249,269.540619 278.195892,270.977509 279.857605,272.745026 
	C278.240723,271.651611 276.596741,270.227570 274.939697,268.453613 
z"/>
<path fill="#54B6EA" opacity="1.000000" stroke="none" 
	d="
M239.970306,157.970795 
	C238.195084,159.304337 236.419861,160.637878 234.265747,161.935913 
	C234.777786,161.078384 235.668716,160.256378 237.020752,159.160980 
	C237.691895,158.638199 237.901947,158.388809 238.112000,158.139404 
	C238.112000,158.139404 238.045761,158.068817 238.392258,158.100342 
	C239.149261,158.078156 239.559784,158.024475 239.970306,157.970795 
z"/>
<path fill="#B9EDFA" opacity="1.000000" stroke="none" 
	d="
M309.984406,303.403076 
	C311.242615,304.183136 312.531342,305.298401 313.841064,306.747955 
	C312.579712,305.967560 311.297333,304.852905 309.984406,303.403076 
z"/>
<path fill="#B9EDFA" opacity="1.000000" stroke="none" 
	d="
M314.962982,308.465729 
	C316.232971,309.216278 317.546570,310.298828 318.893188,311.715027 
	C317.619659,310.964996 316.313141,309.881378 314.962982,308.465729 
z"/>
<path fill="#B9EDFA" opacity="1.000000" stroke="none" 
	d="
M305.965210,299.455444 
	C307.236328,300.208588 308.548187,301.294403 309.896179,302.713135 
	C308.623535,301.960052 307.314697,300.874084 305.965210,299.455444 
z"/>
<path fill="#B9EDFA" opacity="1.000000" stroke="none" 
	d="
M364.948181,357.060791 
	C365.347229,357.760620 365.756226,358.446838 366.272949,359.412170 
	C364.913391,358.380493 363.446075,357.069733 361.978210,355.397644 
	C361.977692,355.036255 362.435883,354.977356 362.766785,355.241333 
	C363.389404,355.688202 363.681122,355.871094 363.972809,356.053955 
	C363.972809,356.053955 363.997284,355.999847 364.058655,356.257385 
	C364.402069,356.694092 364.684174,356.873260 364.966248,357.052429 
	C364.966248,357.052429 364.958130,357.047211 364.948181,357.060791 
z"/>
<path fill="#B9EDFA" opacity="1.000000" stroke="none" 
	d="
M279.932739,273.457825 
	C281.225250,274.211609 282.531372,275.314911 283.870148,276.740295 
	C282.583984,275.977325 281.265137,274.892334 279.932739,273.457825 
z"/>
<path fill="#B9EDFA" opacity="1.000000" stroke="none" 
	d="
M359.906158,353.060974 
	C358.728424,352.193909 357.550690,351.326843 356.870056,350.241241 
	C357.561554,350.041229 357.755951,350.059784 357.950378,350.078308 
	C357.950378,350.078308 358.002136,350.029083 358.053528,350.276886 
	C358.393036,350.705200 358.681122,350.885681 358.969208,351.066193 
	C358.969208,351.066193 358.996063,351.004791 359.058777,351.260193 
	C359.408112,351.694672 359.694672,351.873688 359.981262,352.052704 
	C359.981262,352.052704 359.986816,351.994629 359.970947,352.270630 
	C359.938751,352.718109 359.922455,352.889557 359.906158,353.060974 
z"/>
<path fill="#B9EDFA" opacity="1.000000" stroke="none" 
	d="
M205.444305,188.945801 
	C205.048996,190.162918 204.320023,191.451279 203.281525,192.854126 
	C203.684891,191.651428 204.397766,190.334244 205.444305,188.945801 
z"/>
<path fill="#B9EDFA" opacity="1.000000" stroke="none" 
	d="
M319.975098,313.417297 
	C320.916016,313.859985 321.888458,314.632629 322.875458,315.736023 
	C321.928894,315.293579 320.967773,314.520447 319.975098,313.417297 
z"/>
<path fill="#B9EDFA" opacity="1.000000" stroke="none" 
	d="
M300.962891,294.452148 
	C301.893433,294.888824 302.862488,295.651672 303.855347,296.744385 
	C302.919952,296.308929 301.960663,295.543640 300.962891,294.452148 
z"/>
<path fill="#9FE7FE" opacity="1.000000" stroke="none" 
	d="
M422.055298,424.626678 
	C422.783081,424.381989 423.661835,424.390533 424.770447,424.643768 
	C424.068970,424.885620 423.137634,424.882782 422.055298,424.626678 
z"/>
<path fill="#54B6EA" opacity="1.000000" stroke="none" 
	d="
M391.214417,336.028015 
	C391.508331,335.078949 392.026978,334.129578 392.914978,333.225525 
	C393.203461,333.620361 393.122559,333.969849 392.723541,334.689575 
	C392.227936,335.343201 392.050446,335.626556 391.872925,335.909912 
	C391.872925,335.909912 391.439148,336.027679 391.214417,336.028015 
z"/>
<path fill="#B9EDFA" opacity="1.000000" stroke="none" 
	d="
M224.818588,168.101868 
	C224.627426,168.708755 224.104462,169.297211 223.271393,169.910034 
	C223.469803,169.317413 223.978287,168.700409 224.818588,168.101868 
z"/>
<path fill="#B9EDFA" opacity="1.000000" stroke="none" 
	d="
M372.023865,356.754028 
	C371.757874,356.336792 371.856354,355.965851 372.001556,355.309814 
	C372.395935,354.936798 372.743591,354.848846 373.356567,354.731232 
	C373.210724,355.401154 372.799530,356.100739 372.023865,356.754028 
z"/>
<path fill="#B9EDFA" opacity="1.000000" stroke="none" 
	d="
M225.950897,223.611603 
	C226.563675,223.638779 227.254303,223.970352 228.046082,224.594406 
	C227.441071,224.563248 226.734894,224.239624 225.950897,223.611603 
z"/>
<path fill="#45AEE5" opacity="1.000000" stroke="none" 
	d="
M360.162842,353.203186 
	C359.922455,352.889557 359.938751,352.718109 359.947876,352.288513 
	C360.594727,352.549744 361.248718,353.069092 361.898499,353.943390 
	C361.402679,353.980682 360.911102,353.663055 360.162842,353.203186 
z"/>
<path fill="#45AEE5" opacity="1.000000" stroke="none" 
	d="
M376.669250,350.052216 
	C377.040588,350.188660 377.076294,350.371643 377.164856,350.829651 
	C376.732086,351.420807 376.246429,351.736969 375.484650,352.137268 
	C375.583557,351.513824 375.958588,350.806274 376.669250,350.052216 
z"/>
<path fill="#45AEE5" opacity="1.000000" stroke="none" 
	d="
M357.935089,349.744537 
	C357.755951,350.059784 357.561554,350.041229 357.073639,350.012604 
	C356.675751,349.673737 356.571381,349.345001 356.467651,348.763611 
	C356.952148,348.810883 357.435974,349.110840 357.935089,349.744537 
z"/>
<path fill="#45AEE5" opacity="1.000000" stroke="none" 
	d="
M374.656189,353.119995 
	C374.235779,353.029785 374.028961,352.850525 373.822144,352.671234 
	C374.110413,352.484161 374.398682,352.297119 374.964294,352.165436 
	C375.265869,352.558868 375.141907,352.828918 374.656189,353.119995 
z"/>
<path fill="#45AEE5" opacity="1.000000" stroke="none" 
	d="
M354.760254,347.419678 
	C355.242065,347.348358 355.888824,347.553253 356.551666,348.122681 
	C356.020264,348.223480 355.472748,347.959717 354.760254,347.419678 
z"/>
<path fill="#54B6EA" opacity="1.000000" stroke="none" 
	d="
M389.473511,338.048950 
	C389.416565,337.546967 389.661713,336.933746 390.265869,336.281982 
	C390.341797,336.808197 390.058716,337.372955 389.473511,338.048950 
z"/>
<path fill="#B9EDFA" opacity="1.000000" stroke="none" 
	d="
M239.977631,157.982178 
	C239.559784,158.024475 239.149261,158.078156 238.428802,158.140656 
	C238.550125,157.773926 238.981415,157.398407 239.703445,157.262619 
	C239.994186,157.502335 239.969589,157.978088 239.969589,157.978088 
	C239.969589,157.978088 239.984970,157.993546 239.977631,157.982178 
z"/>
<path fill="#9FE7FE" opacity="1.000000" stroke="none" 
	d="
M431.066681,425.475952 
	C431.156006,425.254333 431.333618,425.196350 431.774506,425.234100 
	C431.743500,425.433075 431.449249,425.536346 431.066681,425.475952 
z"/>
<path fill="#B9EDFA" opacity="1.000000" stroke="none" 
	d="
M368.945129,359.648102 
	C368.788666,359.335785 368.998291,359.083893 369.518738,358.802124 
	C369.574677,359.015991 369.401886,359.328094 368.945129,359.648102 
z"/>
<path fill="#9FE7FE" opacity="1.000000" stroke="none" 
	d="
M453.043152,425.503967 
	C453.127502,425.274780 453.306519,425.210510 453.756165,425.235596 
	C453.730469,425.439606 453.434143,425.554230 453.043152,425.503967 
z"/>
<path fill="#54B6EA" opacity="1.000000" stroke="none" 
	d="
M242.708466,155.995056 
	C242.738937,156.246643 242.479797,156.521713 241.926849,156.817932 
	C241.894974,156.565552 242.156937,156.292038 242.708466,155.995056 
z"/>
<path fill="#54B6EA" opacity="1.000000" stroke="none" 
	d="
M240.198441,157.899323 
	C239.969589,157.978088 239.994186,157.502335 240.011337,157.264877 
	C240.028488,157.027420 240.522369,156.980408 240.766144,157.026917 
	C240.916794,157.401306 240.722595,157.650360 240.198441,157.899323 
z"/>
<path fill="#B9EDFA" opacity="1.000000" stroke="none" 
	d="
M373.902710,354.686462 
	C373.717804,354.616241 373.830505,354.219421 373.996887,354.096710 
	C374.255310,354.183624 374.347382,354.393219 374.439423,354.602844 
	C374.322144,354.654144 374.204865,354.705414 373.902710,354.686462 
z"/>
<path fill="#B9EDFA" opacity="1.000000" stroke="none" 
	d="
M237.856262,158.170349 
	C237.901947,158.388809 237.691895,158.638199 237.236633,158.941284 
	C237.194443,158.730392 237.397476,158.465836 237.856262,158.170349 
z"/>
<path fill="#54B6EA" opacity="1.000000" stroke="none" 
	d="
M233.663605,161.908447 
	C233.708267,162.094040 233.498108,162.319016 233.154938,162.416428 
	C233.150879,162.175201 233.279816,162.061523 233.663605,161.908447 
z"/>
<path fill="#54B6EA" opacity="1.000000" stroke="none" 
	d="
M388.356598,339.163849 
	C388.266510,338.936676 388.435699,338.605377 388.884918,338.198914 
	C388.981934,338.435730 388.798889,338.747711 388.356598,339.163849 
z"/>
<path fill="#B9EDFA" opacity="1.000000" stroke="none" 
	d="
M392.132507,335.834503 
	C392.050446,335.626556 392.227936,335.343201 392.634705,334.946472 
	C392.706696,335.141785 392.549377,335.450439 392.132507,335.834503 
z"/>
<path fill="#54B6EA" opacity="1.000000" stroke="none" 
	d="
M393.484314,333.161469 
	C393.371033,332.920441 393.516541,332.597839 393.933594,332.207703 
	C394.051117,332.453400 393.897095,332.766663 393.484314,333.161469 
z"/>
<path fill="#B9EDFA" opacity="1.000000" stroke="none" 
	d="
M220.021423,172.273010 
	C220.110687,172.526871 219.905502,172.804916 219.458069,173.185684 
	C219.386215,172.958023 219.556580,172.627625 220.021423,172.273010 
z"/>
<path fill="#B9EDFA" opacity="1.000000" stroke="none" 
	d="
M217.575958,175.008759 
	C217.837372,175.286285 217.707382,175.560822 217.149475,175.783875 
	C216.967331,175.517441 217.121674,175.275238 217.575958,175.008759 
z"/>
<path fill="#45AEE5" opacity="1.000000" stroke="none" 
	d="
M364.877380,356.811829 
	C364.684174,356.873260 364.402069,356.694092 364.032623,356.271759 
	C364.226318,356.209473 364.507385,356.390350 364.877380,356.811829 
z"/>
<path fill="#45AEE5" opacity="1.000000" stroke="none" 
	d="
M363.872009,355.810242 
	C363.681122,355.871094 363.389404,355.688202 362.997040,355.260071 
	C363.187988,355.198700 363.479614,355.382599 363.872009,355.810242 
z"/>
<path fill="#45AEE5" opacity="1.000000" stroke="none" 
	d="
M359.883453,351.813843 
	C359.694672,351.873688 359.408112,351.694672 359.027985,351.273407 
	C359.218201,351.212433 359.501923,351.393707 359.883453,351.813843 
z"/>
<path fill="#45AEE5" opacity="1.000000" stroke="none" 
	d="
M358.875122,350.824890 
	C358.681122,350.885681 358.393036,350.705200 358.017853,350.277924 
	C358.214172,350.215302 358.497589,350.399414 358.875122,350.824890 
z"/>
</svg>